<?xml version="1.0" standalone="no"?>
<!DOCTYPE svg PUBLIC "-//W3C//DTD SVG 20010904//EN"
 "http://www.w3.org/TR/2001/REC-SVG-20010904/DTD/svg10.dtd">
<svg version="1.0" xmlns="http://www.w3.org/2000/svg"
 width="481.000000pt" height="434.000000pt" viewBox="0 0 481.000000 434.000000"
 preserveAspectRatio="xMidYMid meet">

<g transform="translate(0.000000,434.000000) scale(0.100000,-0.100000)"
fill="#000000" stroke="none">
<path d="M330 4211 c-85 -27 -164 -93 -202 -170 -21 -43 -23 -62 -26 -253 -4
-234 1 -253 64 -283 47 -22 94 -13 132 25 38 37 42 62 42 250 0 151 1 157 23
178 l23 22 587 0 587 0 0 -204 0 -204 26 -31 c36 -43 89 -58 137 -38 70 30 77
55 77 280 l0 197 585 0 586 0 24 -25 c25 -24 25 -27 25 -198 0 -164 1 -176 23
-208 26 -39 84 -64 123 -55 15 4 43 23 61 41 l34 34 -3 213 c-3 209 -4 214
-30 263 -34 64 -90 118 -153 147 l-50 23 -1335 2 c-734 1 -1346 -2 -1360 -6z"/>
<path d="M1644 3239 c-16 -5 -41 -20 -55 -35 l-24 -26 -3 -526 c-2 -378 1
-534 9 -554 6 -15 26 -37 44 -48 32 -20 48 -20 1524 -20 1304 0 1496 2 1521
15 62 32 60 8 60 591 l0 532 -26 31 c-14 17 -42 35 -62 41 -47 13 -2943 12
-2988 -1z m2836 -599 l0 -370 -1340 0 -1340 0 0 363 c0 200 3 367 7 370 3 4
606 7 1340 7 l1333 0 0 -370z"/>
<path d="M635 3221 c-16 -10 -143 -133 -282 -272 -266 -268 -279 -286 -255
-349 11 -27 518 -536 555 -557 94 -52 206 62 156 160 -6 12 -77 88 -157 170
l-147 147 358 0 c393 0 402 1 432 60 30 59 14 118 -44 157 -34 23 -36 23 -390
23 l-355 0 157 158 157 158 0 48 c0 41 -5 53 -34 82 -28 28 -41 34 -77 34 -26
0 -57 -8 -74 -19z"/>
<path d="M134 1746 l-34 -34 -1 -258 c0 -143 0 -454 1 -693 1 -402 3 -437 21
-485 23 -62 85 -128 154 -165 l50 -26 1350 0 1350 0 57 28 c62 30 115 83 150
149 l23 43 3 692 c2 609 1 697 -13 723 -38 74 -155 81 -202 11 -15 -22 -19
-57 -23 -231 l-5 -205 -605 0 -605 0 -5 205 c-4 174 -8 209 -23 231 -32 48
-101 63 -157 34 -51 -26 -55 -44 -60 -265 l-5 -205 -605 0 -605 0 -5 200 c-3
133 -9 207 -17 222 -24 40 -63 63 -110 63 -38 0 -50 -5 -79 -34z m1426 -1061
l0 -365 -588 0 c-578 0 -589 0 -610 20 -22 21 -22 24 -22 365 l0 345 610 0
610 0 0 -365z m1460 21 l0 -345 -26 -20 c-26 -21 -35 -21 -610 -21 l-584 0 0
365 0 365 610 0 610 0 0 -344z"/>
</g>
</svg>
