<?xml version="1.0" standalone="no"?>
<!DOCTYPE svg PUBLIC "-//W3C//DTD SVG 20010904//EN"
 "http://www.w3.org/TR/2001/REC-SVG-20010904/DTD/svg10.dtd">
<svg version="1.0" xmlns="http://www.w3.org/2000/svg"
 width="472.000000pt" height="426.000000pt" viewBox="0 0 472.000000 426.000000"
 preserveAspectRatio="xMidYMid meet">

<g transform="translate(0.000000,426.000000) scale(0.100000,-0.100000)"
fill="#000000" stroke="none">
<path d="M280 4201 c-69 -21 -132 -65 -173 -122 -61 -83 -58 49 -58 -1939 0
-1988 -3 -1856 58 -1939 34 -46 57 -66 118 -99 l50 -27 935 -2 c731 -2 940 0
959 10 13 6 34 25 45 40 21 28 21 36 24 710 2 375 0 696 -3 714 -17 97 -127
134 -202 69 -28 -24 -28 -25 -33 -178 l-5 -153 -365 0 -365 0 -3 367 -2 367
210 3 210 3 32 33 c28 28 33 39 33 82 0 43 -5 54 -33 82 l-32 33 -210 3 -210
3 2 367 3 367 365 0 365 0 5 -151 c5 -163 8 -172 63 -201 37 -19 100 -12 129
14 48 42 48 39 48 763 0 750 2 731 -62 770 -32 20 -47 20 -953 19 -506 0 -931
-4 -945 -8z m1720 -596 l0 -365 -855 0 -855 0 0 342 c0 337 0 342 22 365 l21
23 834 0 833 0 0 -365z m-982 -977 l2 -368 -365 0 -365 0 0 370 0 370 363 -2
362 -3 3 -367z m2 -978 l0 -370 -365 0 -365 0 0 370 0 370 365 0 365 0 0 -370z
m0 -975 l0 -365 -342 0 c-337 0 -342 0 -365 22 l-23 21 0 344 0 343 365 0 365
0 0 -365z m980 0 l0 -365 -370 0 -370 0 0 365 0 365 370 0 370 0 0 -365z"/>
<path d="M3522 4197 c-13 -7 -32 -27 -43 -43 -18 -28 -19 -69 -19 -2013 0
-1969 0 -1984 20 -2016 11 -18 33 -38 48 -44 20 -9 153 -11 473 -9 l444 3 52
27 c64 34 115 86 145 147 l23 46 0 1845 0 1845 -23 46 c-30 61 -81 113 -145
147 l-52 27 -450 2 c-355 2 -455 0 -473 -10z m885 -249 l23 -21 0 -344 0 -343
-365 0 -365 0 0 365 0 365 342 0 c337 0 342 0 365 -22z m23 -1318 l0 -370
-365 0 -365 0 0 363 c0 200 3 367 7 370 3 4 168 7 365 7 l358 0 0 -370z m0
-980 l0 -370 -362 2 -363 3 -3 368 -2 367 365 0 365 0 0 -370z m0 -952 c0
-337 0 -342 -22 -365 l-21 -23 -344 0 -343 0 0 365 0 365 365 0 365 0 0 -342z"/>
<path d="M2560 2739 c-41 -16 -548 -529 -561 -566 -20 -62 -4 -83 279 -365
294 -293 301 -298 376 -263 44 21 66 59 66 116 0 42 -4 47 -157 201 l-157 158
352 0 c388 0 407 3 436 59 33 63 12 136 -48 165 -29 14 -81 16 -387 16 l-353
0 157 158 c153 154 157 159 157 201 0 56 -22 95 -64 115 -38 18 -60 19 -96 5z"/>
</g>
</svg>
