<?xml version="1.0" standalone="no"?>
<!DOCTYPE svg PUBLIC "-//W3C//DTD SVG 20010904//EN"
 "http://www.w3.org/TR/2001/REC-SVG-20010904/DTD/svg10.dtd">
<svg version="1.0" xmlns="http://www.w3.org/2000/svg"
 width="488.000000pt" height="489.000000pt" viewBox="0 0 488.000000 489.000000"
 preserveAspectRatio="xMidYMid meet">

<g transform="translate(0.000000,489.000000) scale(0.100000,-0.100000)"
fill="#000000" stroke="none">
<path d="M1153 4750 c-37 -22 -60 -82 -49 -127 5 -18 81 -102 222 -243 l214
-215 -206 -205 c-113 -113 -212 -217 -220 -232 -18 -35 -18 -62 1 -102 27 -56
103 -83 158 -55 12 6 115 104 229 217 l208 207 212 -212 c136 -135 223 -214
241 -218 91 -23 171 56 147 143 -7 29 -56 84 -220 247 l-210 209 214 216 c242
244 245 250 203 338 -15 32 -57 52 -108 52 -42 0 -46 -3 -261 -217 l-218 -217
-218 217 -218 217 -45 0 c-26 0 -57 -8 -76 -20z"/>
<path d="M361 4274 c-98 -26 -163 -81 -206 -176 l-26 -56 0 -1816 c0 -1228 4
-1829 11 -1855 24 -90 119 -186 208 -211 23 -6 208 -10 477 -10 485 0 468 -2
501 62 34 66 -2 148 -75 168 -21 6 -204 10 -443 10 l-407 0 -15 22 c-14 19
-16 71 -16 365 l0 342 451 3 451 3 34 37 c38 43 45 88 19 138 -31 60 -31 60
-515 60 l-440 0 0 370 0 370 439 0 c262 0 450 4 465 10 40 15 68 67 63 118 -3
24 -13 52 -23 64 -42 47 -57 48 -514 48 l-430 0 0 365 0 364 451 3 451 3 34
37 c38 43 45 88 19 138 -31 60 -31 60 -515 60 l-440 0 0 349 0 350 26 20 c26
20 38 21 321 21 319 0 335 2 363 55 34 64 8 144 -55 171 -50 20 -586 19 -664
-2z"/>
<path d="M2393 4275 c-62 -27 -89 -104 -58 -165 30 -58 43 -60 395 -60 l320 0
0 -1830 0 -1830 -610 0 -610 0 0 1530 c0 1651 2 1576 -51 1614 -14 9 -43 16
-71 16 -39 0 -54 -6 -80 -29 l-33 -29 -3 -1624 c-2 -1204 1 -1630 9 -1651 7
-15 23 -37 37 -47 24 -20 44 -20 803 -20 l779 0 32 29 33 29 3 2000 2 1999
-22 28 c-42 54 -55 55 -465 55 -302 -1 -385 -4 -410 -15z"/>
<path d="M3615 4276 c-66 -29 -93 -103 -61 -164 32 -62 33 -62 489 -62 404 0
415 -1 441 -21 l26 -20 0 -350 0 -349 -440 0 c-484 0 -484 0 -515 -60 -26 -50
-19 -95 19 -138 l34 -37 451 -3 451 -3 0 -364 0 -365 -430 0 c-457 0 -472 -1
-514 -48 -10 -12 -20 -40 -23 -64 -5 -51 23 -103 63 -118 15 -6 203 -10 465
-10 l439 0 0 -370 0 -370 -440 0 c-484 0 -484 0 -515 -60 -32 -62 -9 -136 51
-165 27 -13 99 -15 468 -15 l436 0 0 -345 c0 -332 -1 -346 -20 -365 -19 -19
-33 -20 -422 -20 -236 0 -418 -4 -439 -10 -73 -20 -109 -102 -75 -168 33 -64
16 -62 501 -62 269 0 454 4 477 10 89 25 184 121 208 211 7 26 11 626 11 1854
l0 1816 -27 60 c-31 68 -92 130 -162 162 -46 21 -58 22 -482 24 -349 2 -441 0
-465 -11z"/>
</g>
</svg>
