<?xml version="1.0" standalone="no"?>
<!DOCTYPE svg PUBLIC "-//W3C//DTD SVG 20010904//EN"
 "http://www.w3.org/TR/2001/REC-SVG-20010904/DTD/svg10.dtd">
<svg version="1.0" xmlns="http://www.w3.org/2000/svg"
 width="454.000000pt" height="480.000000pt" viewBox="0 0 454.000000 480.000000"
 preserveAspectRatio="xMidYMid meet">

<g transform="translate(0.000000,480.000000) scale(0.100000,-0.100000)"
fill="#000000" stroke="none">
<path d="M749 4686 c-91 -32 -156 -96 -190 -186 -18 -47 -19 -86 -19 -674 l0
-624 25 -31 c52 -61 143 -60 189 2 19 25 21 45 24 173 l3 144 490 0 489 0 0
-202 c0 -184 2 -206 20 -235 40 -66 145 -66 194 0 19 26 21 43 24 233 l3 204
487 -2 487 -3 3 -204 c2 -186 4 -206 23 -232 44 -62 146 -60 191 4 22 30 23
43 26 235 l4 202 483 0 484 0 3 -204 c3 -190 5 -207 24 -233 49 -66 154 -66
195 0 19 31 19 51 17 732 l-3 700 -29 53 c-33 60 -76 101 -139 134 l-42 23
-1715 2 c-1385 2 -1722 0 -1751 -11z m3425 -248 c14 -19 16 -71 16 -365 l0
-343 -1705 0 -1705 0 0 345 c0 332 1 346 20 365 20 20 33 20 1689 20 l1670 0
15 -22z"/>
<path d="M130 2989 c-60 -24 -91 -84 -75 -146 4 -18 83 -105 218 -240 l211
-213 -211 -212 c-135 -136 -214 -223 -218 -241 -22 -88 58 -173 143 -152 17 4
106 85 242 221 l215 214 210 -210 c229 -229 249 -243 319 -220 48 15 76 60 76
119 l0 45 -217 218 -217 218 217 218 c214 215 217 219 217 261 0 58 -24 99
-67 118 -74 30 -88 22 -323 -213 l-215 -214 -205 206 c-228 229 -256 248 -320
223z"/>
<path d="M1492 2734 c-53 -37 -67 -130 -25 -176 44 -50 -8 -48 1403 -48 l1320
0 0 -245 0 -245 -1330 0 c-1467 0 -1372 4 -1406 -62 -20 -38 -14 -101 13 -130
44 -50 -13 -48 1474 -48 1267 0 1394 1 1425 16 64 31 64 29 64 480 l0 406 -34
34 -34 34 -1424 0 c-1274 0 -1426 -2 -1446 -16z"/>
<path d="M611 1643 c-76 -40 -71 5 -71 -690 0 -588 1 -625 19 -672 35 -93 111
-165 203 -192 47 -13 3397 -13 3448 1 90 24 186 120 209 208 9 36 14 374 12
911 l-1 253 -34 34 c-45 45 -108 48 -155 8 -43 -36 -51 -77 -51 -276 l0 -178
-487 0 -488 0 3 162 c4 210 -1 243 -43 285 -28 28 -40 33 -80 33 -40 0 -52 -5
-81 -34 l-34 -34 0 -206 0 -206 -489 0 -490 0 -3 203 c-3 173 -6 206 -21 228
-22 33 -57 49 -108 49 -33 0 -48 -7 -75 -34 l-34 -34 0 -206 0 -206 -490 0
-490 0 0 250 c0 194 -3 258 -14 285 -26 62 -97 88 -155 58z m1147 -1080 l2
-243 -470 0 c-457 0 -471 1 -490 20 -19 19 -20 33 -20 245 l0 225 488 -2 487
-3 3 -242z m1220 0 l2 -243 -490 0 -490 0 0 245 0 245 488 -2 487 -3 3 -242z
m1212 22 c0 -212 -1 -226 -20 -245 -19 -19 -33 -20 -485 -20 l-465 0 0 245 0
245 485 0 485 0 0 -225z"/>
</g>
</svg>
