<?xml version="1.0" standalone="no"?>
<!DOCTYPE svg PUBLIC "-//W3C//DTD SVG 20010904//EN"
 "http://www.w3.org/TR/2001/REC-SVG-20010904/DTD/svg10.dtd">
<svg version="1.0" xmlns="http://www.w3.org/2000/svg"
 width="445.000000pt" height="430.000000pt" viewBox="0 0 445.000000 430.000000"
 preserveAspectRatio="xMidYMid meet">

<g transform="translate(0.000000,430.000000) scale(0.100000,-0.100000)"
fill="#000000" stroke="none">
<path d="M754 4211 c-52 -13 -135 -64 -170 -105 -56 -65 -77 -120 -82 -213
l-4 -83 35 -35 c29 -29 42 -35 77 -35 47 0 93 23 110 55 6 11 15 47 19 80 6
45 14 64 35 82 l27 23 460 0 459 0 0 -200 c0 -226 5 -246 66 -275 67 -31 144
3 164 73 5 20 10 119 10 220 l0 182 488 -2 487 -3 5 -205 c3 -134 9 -212 17
-226 32 -56 131 -67 178 -20 37 37 45 88 45 279 l0 177 463 0 c452 0 464 0
485 -20 21 -20 22 -29 22 -183 0 -89 5 -179 10 -199 20 -70 97 -104 164 -73
63 30 68 49 64 283 -3 191 -5 210 -26 253 -29 59 -84 114 -147 147 l-50 27
-1690 2 c-929 0 -1704 -2 -1721 -6z"/>
<path d="M54 3686 c-29 -29 -34 -41 -34 -82 l0 -48 210 -211 c116 -116 210
-215 210 -220 0 -5 -94 -104 -210 -220 l-210 -211 0 -48 c0 -41 5 -53 34 -82
28 -28 42 -34 76 -34 23 0 51 5 63 11 12 6 113 102 224 212 l203 202 213 -213
c209 -208 214 -212 255 -212 73 0 112 29 126 97 5 21 2 43 -8 65 -9 18 -106
123 -216 233 l-200 199 209 211 c231 232 240 246 206 319 -21 44 -59 66 -116
66 -42 0 -46 -3 -256 -212 l-213 -213 -203 202 c-111 110 -212 206 -224 212
-12 6 -40 11 -63 11 -34 0 -48 -6 -76 -34z"/>
<path d="M1314 3239 c-53 -15 -79 -53 -79 -116 0 -49 3 -58 33 -84 l32 -29
1425 0 1425 0 0 -370 0 -370 -1704 0 -1703 0 -5 83 c-6 119 -38 157 -129 157
-33 0 -48 -7 -75 -34 l-34 -34 0 -161 c0 -125 3 -169 15 -191 33 -64 -110 -60
1930 -60 1627 0 1860 2 1885 15 62 32 60 8 60 591 l0 532 -26 31 c-14 17 -42
35 -62 41 -47 13 -2943 12 -2988 -1z"/>
<path d="M553 1760 c-17 -10 -37 -28 -42 -39 -8 -14 -11 -234 -11 -699 0 -612
2 -685 17 -732 22 -69 96 -150 165 -181 l53 -24 1715 0 1715 0 52 27 c64 34
115 86 145 147 23 45 23 53 28 481 3 239 3 558 0 707 l-5 273 -27 26 c-19 20
-40 28 -75 31 -42 5 -53 1 -81 -22 -17 -14 -36 -43 -42 -63 -5 -20 -10 -119
-10 -219 l0 -183 -485 0 c-381 0 -485 3 -485 13 -1 6 -1 86 0 177 0 91 -4 183
-10 205 -13 59 -58 95 -116 95 -39 0 -51 -5 -80 -34 l-34 -34 -1 -196 c-1
-108 -2 -202 -3 -208 -1 -10 -107 -14 -488 -16 l-488 -2 0 190 c0 209 -6 240
-56 279 -40 32 -114 25 -152 -13 l-27 -26 -5 -213 -5 -212 -487 -3 -488 -2 0
190 c0 208 -6 240 -55 278 -35 28 -89 28 -132 2z m1167 -1075 l0 -365 -467 0
c-465 0 -467 0 -490 22 l-23 21 0 344 0 343 490 0 490 0 0 -365z m1218 3 l-3
-363 -487 -3 -488 -2 0 365 0 365 490 0 490 0 -2 -362z m1212 19 l0 -344 -23
-21 -24 -22 -462 2 -462 3 1 358 c0 196 0 359 0 362 0 3 218 5 485 5 l485 0 0
-343z"/>
</g>
</svg>
